{
  "accessors": [
    {
      "bufferView": 2,
      "componentType": 5126,
      "count": 4,
      "max": [
        1,
        1,
        0
      ],
      "min": [
        -1,
        -1,
        0
      ],
      "type": "VEC3"
    },
    {
      "bufferView": 2,
      "byteOffset": 48,
      "componentType": 5126,
      "count": 4,
      "max": [
        0,
        0,
        1
      ],
      "min": [
        0,
        0,
        1
      ],
      "type": "VEC3"
    },
    {
      "bufferView": 3,
      "componentType": 5126,
      "count": 4,
      "max": [
        1,
        0,
        0,
        1
      ],
      "min": [
        1,
        0,
        0,
        1
      ],
      "type": "VEC4"
    },
    {
      "bufferView": 1,
      "componentType": 5126,
      "count": 4,
      "max": [
        0.99989998340606689,
        0.99989998340606689
      ],
      "min": [
        9.9999997473787516e-05,
        9.9999997473787516e-05
      ],
      "type": "VEC2"
    },
    {
      "bufferView": 0,
      "componentType": 5125,
      "count": 6,
      "max": [
        3
      ],
      "min": [
        0
      ],
      "type": "SCALAR"
    },
    {
      "bufferView": 2,
      "byteOffset": 96,
      "componentType": 5126,
      "count": 1232,
      "max": [
        15.486459732055664,
        5.8225197792053223,
        5.1661200523376465
      ],
      "min": [
        -13.354610443115234,
        -17.705610275268555,
        -0.36412999033927917
      ],
      "type": "VEC3"
    },
    {
      "bufferView": 2,
      "byteOffset": 14880,
      "componentType": 5126,
      "count": 1232,
      "max": [
        0.97089290618896484,
        0.99632459878921509,
        0.99919408559799194
      ],
      "min": [
        -0.99991476535797119,
        -0.99968981742858887,
        -0.99732434749603271
      ],
      "type": "VEC3"
    },
    {
      "bufferView": 3,
      "byteOffset": 64,
      "componentType": 5126,
      "count": 1232,
      "max": [
        0.99993741512298584,
        0.99808579683303833,
        0.98435938358306885,
        1
      ],
      "min": [
        -0.98893588781356812,
        -0.99963808059692383,
        -0.99366629123687744,
        -1
      ],
      "type": "VEC4"
    },
    {
      "bufferView": 1,
      "byteOffset": 32,
      "componentType": 5126,
      "count": 1232,
      "max": [
        0.61882001161575317,
        0.99555999040603638
      ],
      "min": [
        0.0040500001050531864,
        0.0026899999938905239
      ],
      "type": "VEC2"
    },
    {
      "bufferView": 0,
      "byteOffset": 24,
      "componentType": 5125,
      "count": 2856,
      "max": [
        1231
      ],
      "min": [
        0
      ],
      "type": "SCALAR"
    },
    {
      "bufferView": 2,
      "byteOffset": 29664,
      "componentType": 5126,
      "count": 2134,
      "max": [
        12.308259963989258,
        3.238569974899292,
        7.6588101387023926
      ],
      "min": [
        -17.997339248657227,
        -14.061459541320801,
        -0.2478799968957901
      ],
      "type": "VEC3"
    },
    {
      "bufferView": 2,
      "byteOffset": 55272,
      "componentType": 5126,
      "count": 2134,
      "max": [
        0.99934440851211548,
        0.99924629926681519,
        1
      ],
      "min": [
        -0.99991512298583984,
        -0.99996870756149292,
        -0.99732613563537598
      ],
      "type": "VEC3"
    },
    {
      "bufferView": 3,
      "byteOffset": 19776,
      "componentType": 5126,
      "count": 2134,
      "max": [
        1,
        0.99894368648529053,
        0.99681335687637329,
        1
      ],
      "min": [
        -0.99940776824951172,
        -0.99996614456176758,
        -0.99367231130599976,
        -1
      ],
      "type": "VEC4"
    },
    {
      "bufferView": 1,
      "byteOffset": 9888,
      "componentType": 5126,
      "count": 2134,
      "max": [
        0.99731999635696411,
        0.99610000848770142
      ],
      "min": [
        0.0024300001095980406,
        0.0017399999778717756
      ],
      "type": "VEC2"
    },
    {
      "bufferView": 0,
      "byteOffset": 11448,
      "componentType": 5125,
      "count": 5478,
      "max": [
        2133
      ],
      "min": [
        0
      ],
      "type": "SCALAR"
    }
  ],
  "asset": {
    "extras": {
      "author": "luyssport (https://sketchfab.com/luyssport)",
      "license": "CC-BY-NC-SA-4.0 (http://creativecommons.org/licenses/by-nc-sa/4.0/)",
      "source": "https://sketchfab.com/models/6c2980169c1e44e499d94a67c1752477",
      "title": "Plants kit"
    },
    "generator": "Sketchfab-3.19.6",
    "version": "2.0"
  },
  "bufferViews": [
    {
      "buffer": 0,
      "byteLength": 33360,
      "byteOffset": 0,
      "name": "floatBufferViews",
      "target": 34963
    },
    {
      "buffer": 0,
      "byteLength": 26960,
      "byteOffset": 33360,
      "byteStride": 8,
      "name": "floatBufferViews",
      "target": 34962
    },
    {
      "buffer": 0,
      "byteLength": 80880,
      "byteOffset": 60320,
      "byteStride": 12,
      "name": "floatBufferViews",
      "target": 34962
    },
    {
      "buffer": 0,
      "byteLength": 53920,
      "byteOffset": 141200,
      "byteStride": 16,
      "name": "floatBufferViews",
      "target": 34962
    }
  ],
  "buffers": [
    {
      "byteLength": 195120,
      "uri": "scene.bin"
    }
  ],
  "images": [
    {
      "uri": "textures/plants002_baseColor.jpeg"
    },
    {
      "uri": "textures/plants_baseColor.jpeg"
    },
    {
      "uri": "textures/Material_baseColor.png"
    }
  ],
  "materials": [
    {
      "doubleSided": true,
      "name": "plants",
      "pbrMetallicRoughness": {
        "baseColorFactor": [
          1,
          1,
          1,
          1
        ],
        "baseColorTexture": {
          "index": 1,
          "texCoord": 0
        },
        "metallicFactor": 0,
        "roughnessFactor": 1
      }
    },
    {
      "doubleSided": true,
      "name": "plants002",
      "pbrMetallicRoughness": {
        "baseColorFactor": [
          1,
          1,
          1,
          1
        ],
        "baseColorTexture": {
          "index": 0,
          "texCoord": 0
        },
        "metallicFactor": 0,
        "roughnessFactor": 1
      }
    },
    {
      "alphaMode": "BLEND",
      "doubleSided": false,
      "name": "Material",
      "pbrMetallicRoughness": {
        "baseColorFactor": [
          0,
          0,
          0,
          1
        ],
        "baseColorTexture": {
          "index": 2,
          "texCoord": 0
        },
        "metallicFactor": 0,
        "roughnessFactor": 1
      }
    }
  ],
  "meshes": [
    {
      "name": "Plane_0",
      "primitives": [
        {
          "attributes": {
            "NORMAL": 1,
            "POSITION": 0,
            "TANGENT": 2,
            "TEXCOORD_0": 3
          },
          "indices": 4,
          "material": 2,
          "mode": 4
        }
      ]
    },
    {
      "name": "Plane.005_0",
      "primitives": [
        {
          "attributes": {
            "NORMAL": 6,
            "POSITION": 5,
            "TANGENT": 7,
            "TEXCOORD_0": 8
          },
          "indices": 9,
          "material": 1,
          "mode": 4
        }
      ]
    },
    {
      "name": "Plane.014_0",
      "primitives": [
        {
          "attributes": {
            "NORMAL": 11,
            "POSITION": 10,
            "TANGENT": 12,
            "TEXCOORD_0": 13
          },
          "indices": 14,
          "material": 0,
          "mode": 4
        }
      ]
    }
  ],
  "nodes": [
    {
      "children": [
        1
      ],
      "name": "RootNode (gltf orientation matrix)",
      "rotation": [
        -0.70710678118654746,
        -0,
        -0,
        0.70710678118654757
      ]
    },
    {
      "children": [
        2
      ],
      "name": "RootNode (model correction matrix)"
    },
    {
      "children": [
        3,
        5,
        7,
        9,
        11
      ],
      "name": "Root"
    },
    {
      "children": [
        4
      ],
      "matrix": [
        -1.17394,
        3.8551099999999998,
        -0.22275000000000003,
        0,
        -3.11219,
        -0.80674000000000012,
        2.4398899999999997,
        0,
        2.2859900000000004,
        0.88144000000000011,
        3.2073300000000007,
        0,
        10.75309,
        -1.0974699999999999,
        17.972569999999997,
        1
      ],
      "name": "Lamp"
    },
    {
      "name": "Lamp"
    },
    {
      "children": [
        6
      ],
      "matrix": [
        0.29435000000000006,
        0.95517000000000007,
        -0.031720000000000005,
        0,
        0.56215000000000004,
        -0.19988000000000003,
        -0.80252000000000001,
        0,
        -0.77288000000000001,
        0.21839000000000003,
        -0.59578000000000009,
        0,
        -21.728239999999996,
        1.0054599999999998,
        -11.063550000000001,
        1
      ],
      "name": "Lamp.001"
    },
    {
      "name": "Lamp.001"
    },
    {
      "children": [
        8
      ],
      "matrix": [
        5.6857299999999995,
        -6.6124699999999992,
        0,
        0,
        6.6124699999999992,
        5.6857299999999995,
        0,
        0,
        0,
        0,
        8.7207899999999992,
        0,
        -0.015270000000000004,
        -1.3429800000000001,
        -0.020600000000000004,
        1
      ],
      "name": "Plane"
    },
    {
      "mesh": 0,
      "name": "Plane_0"
    },
    {
      "children": [
        10
      ],
      "matrix": [
        0.4627,
        0,
        0,
        0,
        0,
        0.4627,
        0,
        0,
        0,
        0,
        0.4627,
        0,
        -0.0097400000000000039,
        0,
        0.075480000000000005,
        1
      ],
      "name": "Plane.005"
    },
    {
      "mesh": 1,
      "name": "Plane.005_0"
    },
    {
      "children": [
        12
      ],
      "matrix": [
        0.4627,
        0,
        0,
        0,
        0,
        0.4627,
        0,
        0,
        0,
        0,
        0.4627,
        0,
        -0.0097400000000000039,
        0,
        0.075480000000000005,
        1
      ],
      "name": "Plane.014"
    },
    {
      "mesh": 2,
      "name": "Plane.014_0"
    }
  ],
  "samplers": [
    {
      "magFilter": 9729,
      "minFilter": 9987,
      "wrapS": 10497,
      "wrapT": 10497
    }
  ],
  "scene": 0,
  "scenes": [
    {
      "name": "OSG_Scene",
      "nodes": [
        0
      ]
    }
  ],
  "textures": [
    {
      "sampler": 0,
      "source": 0
    },
    {
      "sampler": 0,
      "source": 1
    },
    {
      "sampler": 0,
      "source": 2
    }
  ]
}

