{
  "accessors": [
    {
      "bufferView": 3,
      "componentType": 5126,
      "count": 2160,
      "max": [
        0.9239799976348877,
        0.42399001121520996,
        0.80287998914718628
      ],
      "min": [
        -0.9239799976348877,
        -0.42399001121520996,
        0
      ],
      "type": "VEC3"
    },
    {
      "bufferView": 3,
      "byteOffset": 25920,
      "componentType": 5126,
      "count": 2160,
      "max": [
        1,
        1,
        1
      ],
      "min": [
        -1,
        -1,
        -1
      ],
      "type": "VEC3"
    },
    {
      "bufferView": 4,
      "componentType": 5126,
      "count": 2160,
      "max": [
        1,
        1,
        0.99369055032730103,
        1
      ],
      "min": [
        -1,
        -1,
        -0.49429461359977722,
        -1
      ],
      "type": "VEC4"
    },
    {
      "bufferView": 2,
      "componentType": 5126,
      "count": 2160,
      "max": [
        0.98417997360229492,
        0.97961002588272095
      ],
      "min": [
        0.014670000411570072,
        0.012900000438094139
      ],
      "type": "VEC2"
    },
    {
      "bufferView": 1,
      "componentType": 5125,
      "count": 4308,
      "max": [
        2159
      ],
      "min": [
        0
      ],
      "type": "SCALAR"
    },
    {
      "bufferView": 5,
      "componentType": 5126,
      "count": 24,
      "max": [
        1,
        0,
        0.5,
        0,
        0.5,
        1,
        1,
        0,
        0,
        1,
        1,
        0,
        0.76727002859115601,
        0.0010000000474974513,
        0.69999998807907104,
        1
      ],
      "min": [
        -1,
        0,
        -0.5,
        0,
        -0.5,
        -0,
        -1,
        0,
        0,
        0,
        -0,
        0,
        -0.76779001951217651,
        -0.80099999904632568,
        -0.27000001072883606,
        1
      ],
      "type": "MAT4"
    },
    {
      "bufferView": 0,
      "componentType": 5123,
      "count": 2160,
      "max": [
        2,
        2,
        2,
        2
      ],
      "min": [
        2,
        2,
        2,
        2
      ],
      "type": "VEC4"
    },
    {
      "bufferView": 4,
      "byteOffset": 34560,
      "componentType": 5126,
      "count": 2160,
      "max": [
        1,
        0,
        0,
        0
      ],
      "min": [
        1,
        0,
        0,
        0
      ],
      "type": "VEC4"
    }
  ],
  "asset": {
    "extras": {
      "author": "hyonati (https://sketchfab.com/hyonati)",
      "license": "CC-BY-SA-4.0 (http://creativecommons.org/licenses/by-sa/4.0/)",
      "source": "https://sketchfab.com/3d-models/table-1-2bfc2df41cbe4b3282a80cae2013ede8",
      "title": "Table 1"
    },
    "generator": "Sketchfab-6.70.0",
    "version": "2.0"
  },
  "bufferViews": [
    {
      "buffer": 0,
      "byteLength": 17280,
      "byteOffset": 0,
      "byteStride": 8,
      "name": "shortBufferViews",
      "target": 34962
    },
    {
      "buffer": 0,
      "byteLength": 17232,
      "byteOffset": 17280,
      "name": "floatBufferViews",
      "target": 34963
    },
    {
      "buffer": 0,
      "byteLength": 17280,
      "byteOffset": 34512,
      "byteStride": 8,
      "name": "floatBufferViews",
      "target": 34962
    },
    {
      "buffer": 0,
      "byteLength": 51840,
      "byteOffset": 51792,
      "byteStride": 12,
      "name": "floatBufferViews",
      "target": 34962
    },
    {
      "buffer": 0,
      "byteLength": 69120,
      "byteOffset": 103632,
      "byteStride": 16,
      "name": "floatBufferViews",
      "target": 34962
    },
    {
      "buffer": 0,
      "byteLength": 1536,
      "byteOffset": 172752,
      "byteStride": 64,
      "name": "floatBufferViews"
    }
  ],
  "buffers": [
    {
      "byteLength": 174288,
      "uri": "scene.bin"
    }
  ],
  "images": [
    {
      "uri": "textures/DIFFUSE_baseColor.png"
    }
  ],
  "materials": [
    {
      "doubleSided": true,
      "emissiveFactor": [
        0,
        0,
        0
      ],
      "name": "DIFFUSE",
      "pbrMetallicRoughness": {
        "baseColorFactor": [
          1,
          1,
          1,
          1
        ],
        "baseColorTexture": {
          "index": 0,
          "texCoord": 0
        },
        "metallicFactor": 0,
        "roughnessFactor": 0.59999999999999998
      }
    }
  ],
  "meshes": [
    {
      "name": "s4studio_mesh_0",
      "primitives": [
        {
          "attributes": {
            "JOINTS_0": 6,
            "NORMAL": 1,
            "POSITION": 0,
            "TANGENT": 2,
            "TEXCOORD_0": 3,
            "WEIGHTS_0": 7
          },
          "indices": 4,
          "material": 0,
          "mode": 4
        }
      ]
    }
  ],
  "nodes": [
    {
      "children": [
        1
      ],
      "name": "RootNode (gltf orientation matrix)",
      "rotation": [
        -0.70710678118654746,
        -0,
        -0,
        0.70710678118654757
      ]
    },
    {
      "children": [
        2
      ],
      "name": "RootNode (model correction matrix)"
    },
    {
      "children": [
        3,
        5,
        7,
        9,
        11
      ],
      "name": "Root"
    },
    {
      "children": [
        4
      ],
      "matrix": [
        -0.29086000000000006,
        0.95517000000000007,
        -0.05519000000000001,
        0,
        -0.77110000000000001,
        -0.19988000000000003,
        0.60452000000000006,
        0,
        0.56639000000000006,
        0.21839000000000003,
        0.7946700000000001,
        0,
        3,
        0,
        4,
        1
      ],
      "name": "Lamp.004"
    },
    {
      "name": "Lamp.004"
    },
    {
      "children": [
        6
      ],
      "matrix": [
        -0.29086000000000006,
        0.95517000000000007,
        -0.05519000000000001,
        0,
        -0.77110000000000001,
        -0.19988000000000003,
        0.60452000000000006,
        0,
        0.56639000000000006,
        0.21839000000000003,
        0.7946700000000001,
        0,
        -3,
        0,
        4,
        1
      ],
      "name": "Lamp.001"
    },
    {
      "name": "Lamp.001"
    },
    {
      "children": [
        8
      ],
      "matrix": [
        -0.29086000000000006,
        0.95517000000000007,
        -0.05519000000000001,
        0,
        -0.77110000000000001,
        -0.19988000000000003,
        0.60452000000000006,
        0,
        0.56639000000000006,
        0.21839000000000003,
        0.7946700000000001,
        0,
        0,
        3,
        4,
        1
      ],
      "name": "Lamp.002"
    },
    {
      "name": "Lamp.002"
    },
    {
      "children": [
        10
      ],
      "matrix": [
        -0.29086000000000006,
        0.95517000000000007,
        -0.05519000000000001,
        0,
        -0.77110000000000001,
        -0.19988000000000003,
        0.60452000000000006,
        0,
        0.56639000000000006,
        0.21839000000000003,
        0.7946700000000001,
        0,
        0,
        -3,
        4,
        1
      ],
      "name": "Lamp.003"
    },
    {
      "name": "Lamp.003"
    },
    {
      "children": [
        12,
        37,
        36
      ],
      "name": "rig"
    },
    {
      "children": [
        13
      ],
      "name": "rig_rootJoint"
    },
    {
      "children": [
        14
      ],
      "name": "b__ROOT___rig",
      "rotation": [
        0.7071068286895752,
        0,
        0,
        0.7071068286895752
      ],
      "scale": [
        1,
        1,
        1
      ],
      "translation": [
        0,
        0,
        -0.0010000000474974513
      ]
    },
    {
      "children": [
        15,
        16,
        17,
        18,
        19,
        20,
        21,
        22,
        23,
        24,
        25,
        26,
        27,
        28,
        29,
        30
      ],
      "name": "transformBone_rig",
      "rotation": [
        0,
        0,
        0,
        1
      ],
      "scale": [
        1,
        1,
        1
      ],
      "translation": [
        0,
        0,
        0
      ]
    },
    {
      "name": "_FX__rig",
      "rotation": [
        0,
        0,
        0,
        1
      ],
      "scale": [
        1,
        1,
        1
      ],
      "translation": [
        0,
        0,
        0
      ]
    },
    {
      "name": "_deco_med_1_rig",
      "rotation": [
        0,
        0,
        0,
        1
      ],
      "scale": [
        1,
        1,
        1
      ],
      "translation": [
        -0.53799998760223389,
        0.80199998617172241,
        0.15099999308586121
      ]
    },
    {
      "name": "_deco_med_2_rig",
      "rotation": [
        0,
        0,
        0,
        1
      ],
      "scale": [
        1,
        1,
        1
      ],
      "translation": [
        0,
        0.80199998617172241,
        0.15099999308586121
      ]
    },
    {
      "name": "_deco_med_3_rig",
      "rotation": [
        0,
        0,
        0,
        1
      ],
      "scale": [
        1,
        1,
        1
      ],
      "translation": [
        0.53799998760223389,
        0.80199998617172241,
        0.15099999308586121
      ]
    },
    {
      "name": "_deco_sml_1_rig",
      "rotation": [
        0,
        0.25881794095039368,
        0,
        0.96592611074447632
      ],
      "scale": [
        1.0000039339065552,
        1,
        1.0000039339065552
      ],
      "translation": [
        -0.7475699782371521,
        0.80199998617172241,
        0.23972000181674957
      ]
    },
    {
      "name": "_deco_sml_2_rig",
      "rotation": [
        0,
        -0.25881794095039368,
        0,
        0.96592611074447632
      ],
      "scale": [
        1.0000039339065552,
        1,
        1.0000039339065552
      ],
      "translation": [
        0.74800002574920654,
        0.80199998617172241,
        0.23999999463558197
      ]
    },
    {
      "name": "_deco_sml_3_rig",
      "rotation": [
        0,
        0,
        0,
        1
      ],
      "scale": [
        1,
        1,
        1
      ],
      "translation": [
        -0.26899999380111694,
        0.80000001192092896,
        0.2630000114440918
      ]
    },
    {
      "name": "_deco_sml_4_rig",
      "rotation": [
        0,
        0,
        0,
        1
      ],
      "scale": [
        1,
        1,
        1
      ],
      "translation": [
        0.20016999542713165,
        0.80199998617172241,
        -0.24019999802112579
      ]
    },
    {
      "name": "_deco_sml_5_rig",
      "rotation": [
        0,
        0,
        0,
        1
      ],
      "scale": [
        1,
        1,
        1
      ],
      "translation": [
        -0.20000000298023224,
        0.80199998617172241,
        -0.23999999463558197
      ]
    },
    {
      "name": "_deco_sml_6_rig",
      "rotation": [
        0,
        0,
        0,
        1
      ],
      "scale": [
        1,
        1,
        1
      ],
      "translation": [
        0.64399999380111694,
        0.80199998617172241,
        -0.23000000417232513
      ]
    },
    {
      "name": "_deco_sml_7_rig",
      "rotation": [
        0,
        0,
        0,
        1
      ],
      "scale": [
        1,
        1,
        1
      ],
      "translation": [
        -0.643809974193573,
        0.80199998617172241,
        -0.23000000417232513
      ]
    },
    {
      "name": "_deco_sml_8_rig",
      "rotation": [
        0,
        0,
        0,
        1
      ],
      "scale": [
        1,
        1,
        1
      ],
      "translation": [
        0.2692599892616272,
        0.80199998617172241,
        0.26291999220848083
      ]
    },
    {
      "name": "_deco_lrg_1_rig",
      "rotation": [
        0,
        0,
        0,
        1
      ],
      "scale": [
        1,
        1,
        1
      ],
      "translation": [
        -0.54312998056411743,
        0.80199998617172241,
        0
      ]
    },
    {
      "name": "_deco_lrg_2_rig",
      "rotation": [
        0,
        0,
        0,
        1
      ],
      "scale": [
        1,
        1,
        1
      ],
      "translation": [
        0,
        0.80199998617172241,
        0
      ]
    },
    {
      "name": "_deco_lrg_3_rig",
      "rotation": [
        0,
        0,
        0,
        1
      ],
      "scale": [
        1,
        1,
        1
      ],
      "translation": [
        0.5429999828338623,
        0.80199998617172241,
        0
      ]
    },
    {
      "children": [
        31,
        32,
        33,
        34,
        35
      ],
      "name": "b__subroot__0_rig",
      "rotation": [
        0,
        0,
        0,
        1
      ],
      "scale": [
        1,
        1,
        1
      ],
      "translation": [
        0,
        0,
        0
      ]
    },
    {
      "name": "_ctnm_chr_0_rig",
      "rotation": [
        0,
        1,
        0,
        0
      ],
      "scale": [
        1,
        1,
        1
      ],
      "translation": [
        0,
        0,
        0.69999998807907104
      ]
    },
    {
      "name": "_ctnm_eat_0_rig",
      "rotation": [
        0,
        0,
        0,
        1
      ],
      "scale": [
        1,
        1,
        1
      ],
      "translation": [
        0,
        0.80000001192092896,
        0.27000001072883606
      ]
    },
    {
      "name": "_ctnm_drink_0_rig",
      "rotation": [
        0,
        0,
        0,
        1
      ],
      "scale": [
        1,
        1,
        1
      ],
      "translation": [
        0.16300000250339508,
        0.80000001192092896,
        0.18299999833106995
      ]
    },
    {
      "name": "_ctnm_sitIndividual_0_rig",
      "rotation": [
        0,
        0,
        0,
        1
      ],
      "scale": [
        1,
        1,
        1
      ],
      "translation": [
        0,
        0.80000001192092896,
        0.27000001072883606
      ]
    },
    {
      "name": "_ctnm_sitShared_0_rig",
      "rotation": [
        0,
        0,
        0,
        1
      ],
      "scale": [
        1,
        1,
        1
      ],
      "translation": [
        0,
        0.80000001192092896,
        0
      ]
    },
    {
      "name": "s4studio_mesh_0"
    },
    {
      "mesh": 0,
      "name": "s4studio_mesh_0_0",
      "skin": 0
    }
  ],
  "samplers": [
    {
      "magFilter": 9729,
      "minFilter": 9987,
      "wrapS": 10497,
      "wrapT": 10497
    }
  ],
  "scene": 0,
  "scenes": [
    {
      "name": "OSG_Scene",
      "nodes": [
        0
      ]
    }
  ],
  "skins": [
    {
      "inverseBindMatrices": 5,
      "joints": [
        12,
        13,
        14,
        15,
        16,
        17,
        18,
        19,
        20,
        21,
        22,
        23,
        24,
        25,
        26,
        27,
        28,
        29,
        30,
        31,
        32,
        33,
        34,
        35
      ],
      "skeleton": 12
    }
  ],
  "textures": [
    {
      "sampler": 0,
      "source": 0
    }
  ]
}

