{
  "accessors": [
    {
      "bufferView": 2,
      "componentType": 5126,
      "count": 1389,
      "max": [
        1.3831520080566406,
        0.036757290363311768,
        2.2050650119781494
      ],
      "min": [
        -1.3831520080566406,
        -0.20324300229549408,
        -0.59660959243774414
      ],
      "type": "VEC3"
    },
    {
      "bufferView": 2,
      "byteOffset": 16668,
      "componentType": 5126,
      "count": 1389,
      "max": [
        0.99993544816970825,
        1,
        0.98687893152236938
      ],
      "min": [
        -0.99993544816970825,
        -1,
        -1
      ],
      "type": "VEC3"
    },
    {
      "bufferView": 3,
      "componentType": 5126,
      "count": 1389,
      "max": [
        1,
        0.00010092223237734288,
        0.62632787227630615,
        1
      ],
      "min": [
        -1,
        -0.00011893724877154455,
        -1,
        -1
      ],
      "type": "VEC4"
    },
    {
      "bufferView": 1,
      "componentType": 5126,
      "count": 1389,
      "max": [
        0.97866708040237427,
        0.96242684125900269
      ],
      "min": [
        0.52809667587280273,
        0.04976363480091095
      ],
      "type": "VEC2"
    },
    {
      "bufferView": 0,
      "componentType": 5125,
      "count": 2136,
      "max": [
        1388
      ],
      "min": [
        0
      ],
      "type": "SCALAR"
    },
    {
      "bufferView": 2,
      "byteOffset": 33336,
      "componentType": 5126,
      "count": 16,
      "max": [
        1.4754745960235596,
        1.0419884920120239,
        4.1953754425048828
      ],
      "min": [
        -1.4754745960235596,
        -1.0419884920120239,
        0.10703519731760025
      ],
      "type": "VEC3"
    },
    {
      "bufferView": 2,
      "byteOffset": 33528,
      "componentType": 5126,
      "count": 16,
      "max": [
        1,
        0.7071068286895752,
        2.1609233513686377e-08
      ],
      "min": [
        0,
        -1,
        8.1257818251856406e-09
      ],
      "type": "VEC3"
    },
    {
      "bufferView": 3,
      "byteOffset": 22224,
      "componentType": 5126,
      "count": 16,
      "max": [
        1,
        1,
        0,
        1
      ],
      "min": [
        -0.7071068286895752,
        -4.7895389064034951e-15,
        -2.2207842675925349e-07,
        1
      ],
      "type": "VEC4"
    },
    {
      "bufferView": 1,
      "byteOffset": 11112,
      "componentType": 5126,
      "count": 16,
      "max": [
        0.98869532346725464,
        0.99088585376739502
      ],
      "min": [
        0.0086851296946406364,
        0.0091141462326049805
      ],
      "type": "VEC2"
    },
    {
      "bufferView": 0,
      "byteOffset": 8544,
      "componentType": 5125,
      "count": 24,
      "max": [
        15
      ],
      "min": [
        0
      ],
      "type": "SCALAR"
    },
    {
      "bufferView": 2,
      "byteOffset": 33720,
      "componentType": 5126,
      "count": 17874,
      "max": [
        1.1929187774658203,
        1.1929187774658203,
        0.21060775220394135
      ],
      "min": [
        -1.1929187774658203,
        -1.1929187774658203,
        0
      ],
      "type": "VEC3"
    },
    {
      "bufferView": 2,
      "byteOffset": 248208,
      "componentType": 5126,
      "count": 17874,
      "max": [
        1,
        1,
        1
      ],
      "min": [
        -1,
        -1,
        -1
      ],
      "type": "VEC3"
    },
    {
      "bufferView": 3,
      "byteOffset": 22480,
      "componentType": 5126,
      "count": 17874,
      "max": [
        0.99996674060821533,
        1,
        0.95555740594863892,
        1
      ],
      "min": [
        -0.99996668100357056,
        -1,
        -0.99919039011001587,
        -1
      ],
      "type": "VEC4"
    },
    {
      "bufferView": 1,
      "byteOffset": 11240,
      "componentType": 5126,
      "count": 17874,
      "max": [
        0.99210000038146973,
        0.98483216762542725
      ],
      "min": [
        0.027662232518196106,
        0.008274514228105545
      ],
      "type": "VEC2"
    },
    {
      "bufferView": 0,
      "byteOffset": 8640,
      "componentType": 5125,
      "count": 100992,
      "max": [
        17873
      ],
      "min": [
        0
      ],
      "type": "SCALAR"
    },
    {
      "bufferView": 4,
      "componentType": 5126,
      "count": 2,
      "max": [
        4.1666665077209473
      ],
      "min": [
        0.041666667908430099
      ],
      "type": "SCALAR"
    },
    {
      "bufferView": 5,
      "componentType": 5126,
      "count": 2,
      "max": [
        0,
        344.16201782226562,
        -7.1854100227355957
      ],
      "min": [
        0,
        344.16201782226562,
        -7.1854100227355957
      ],
      "type": "VEC3"
    },
    {
      "bufferView": 4,
      "byteOffset": 8,
      "componentType": 5126,
      "count": 2,
      "max": [
        4.1666665077209473
      ],
      "min": [
        0.041666667908430099
      ],
      "type": "SCALAR"
    },
    {
      "bufferView": 5,
      "byteOffset": 24,
      "componentType": 5126,
      "count": 2,
      "max": [
        100,
        100,
        100
      ],
      "min": [
        100,
        100,
        100
      ],
      "type": "VEC3"
    },
    {
      "bufferView": 4,
      "byteOffset": 16,
      "componentType": 5126,
      "count": 197,
      "max": [
        4.1666665077209473
      ],
      "min": [
        0.041666667908430099
      ],
      "type": "SCALAR"
    },
    {
      "bufferView": 6,
      "componentType": 5126,
      "count": 197,
      "max": [
        0.49110081791877747,
        0.70709717273712158,
        0.70709723234176636,
        0.70710670948028564
      ],
      "min": [
        -0.7071068286895752,
        -0.49998575448989868,
        -0.49998581409454346,
        -0.4911007285118103
      ],
      "type": "VEC4"
    },
    {
      "bufferView": 4,
      "byteOffset": 804,
      "componentType": 5126,
      "count": 2,
      "max": [
        4.1666665077209473
      ],
      "min": [
        0.041666667908430099
      ],
      "type": "SCALAR"
    },
    {
      "bufferView": 5,
      "byteOffset": 48,
      "componentType": 5126,
      "count": 2,
      "max": [
        0,
        0,
        0
      ],
      "min": [
        0,
        0,
        0
      ],
      "type": "VEC3"
    },
    {
      "bufferView": 4,
      "byteOffset": 812,
      "componentType": 5126,
      "count": 2,
      "max": [
        4.1666665077209473
      ],
      "min": [
        0.041666667908430099
      ],
      "type": "SCALAR"
    },
    {
      "bufferView": 5,
      "byteOffset": 72,
      "componentType": 5126,
      "count": 2,
      "max": [
        100,
        100,
        100
      ],
      "min": [
        100,
        100,
        100
      ],
      "type": "VEC3"
    },
    {
      "bufferView": 4,
      "byteOffset": 820,
      "componentType": 5126,
      "count": 197,
      "max": [
        4.1666665077209473
      ],
      "min": [
        0.041666667908430099
      ],
      "type": "SCALAR"
    },
    {
      "bufferView": 6,
      "byteOffset": 3152,
      "componentType": 5126,
      "count": 197,
      "max": [
        0.49110081791877747,
        0.70709717273712158,
        0.70709723234176636,
        0.70710670948028564
      ],
      "min": [
        -0.7071068286895752,
        -0.49998575448989868,
        -0.49998581409454346,
        -0.4911007285118103
      ],
      "type": "VEC4"
    }
  ],
  "animations": [
    {
      "channels": [
        {
          "sampler": 0,
          "target": {
            "node": 5,
            "path": "translation"
          }
        },
        {
          "sampler": 1,
          "target": {
            "node": 5,
            "path": "scale"
          }
        },
        {
          "sampler": 2,
          "target": {
            "node": 5,
            "path": "rotation"
          }
        },
        {
          "sampler": 3,
          "target": {
            "node": 7,
            "path": "translation"
          }
        },
        {
          "sampler": 4,
          "target": {
            "node": 7,
            "path": "scale"
          }
        },
        {
          "sampler": 5,
          "target": {
            "node": 7,
            "path": "rotation"
          }
        }
      ],
      "name": "Scene",
      "samplers": [
        {
          "input": 15,
          "interpolation": "LINEAR",
          "output": 16
        },
        {
          "input": 17,
          "interpolation": "LINEAR",
          "output": 18
        },
        {
          "input": 19,
          "interpolation": "LINEAR",
          "output": 20
        },
        {
          "input": 21,
          "interpolation": "LINEAR",
          "output": 22
        },
        {
          "input": 23,
          "interpolation": "LINEAR",
          "output": 24
        },
        {
          "input": 25,
          "interpolation": "LINEAR",
          "output": 26
        }
      ]
    }
  ],
  "asset": {
    "extras": {
      "author": "KangaroOz 3D (https://sketchfab.com/KangaroOz-3D)",
      "license": "CC-BY-4.0 (http://creativecommons.org/licenses/by/4.0/)",
      "source": "https://sketchfab.com/models/9860e2270f1245698995adce759c187f",
      "title": "Hologram"
    },
    "generator": "Sketchfab-4.23.2",
    "version": "2.0"
  },
  "bufferViews": [
    {
      "buffer": 0,
      "byteLength": 412608,
      "byteOffset": 0,
      "name": "floatBufferViews",
      "target": 34963
    },
    {
      "buffer": 0,
      "byteLength": 154232,
      "byteOffset": 412608,
      "byteStride": 8,
      "name": "floatBufferViews",
      "target": 34962
    },
    {
      "buffer": 0,
      "byteLength": 462696,
      "byteOffset": 566840,
      "byteStride": 12,
      "name": "floatBufferViews",
      "target": 34962
    },
    {
      "buffer": 0,
      "byteLength": 308464,
      "byteOffset": 1029536,
      "byteStride": 16,
      "name": "floatBufferViews",
      "target": 34962
    },
    {
      "buffer": 0,
      "byteLength": 1608,
      "byteOffset": 1338000,
      "name": "floatBufferViews"
    },
    {
      "buffer": 0,
      "byteLength": 96,
      "byteOffset": 1339608,
      "byteStride": 12,
      "name": "floatBufferViews"
    },
    {
      "buffer": 0,
      "byteLength": 6304,
      "byteOffset": 1339704,
      "byteStride": 16,
      "name": "floatBufferViews"
    }
  ],
  "buffers": [
    {
      "byteLength": 1346008,
      "uri": "scene.bin"
    }
  ],
  "images": [
    {
      "uri": "textures/Hologram-lights_baseColor.png"
    },
    {
      "uri": "textures/Hologram-lights_emissive.jpeg"
    },
    {
      "uri": "textures/Hologram-object_baseColor.png"
    },
    {
      "uri": "textures/Hologram-object_emissive.jpeg"
    },
    {
      "uri": "textures/Metal-part_metallicRoughness.png"
    },
    {
      "uri": "textures/Metal-part_baseColor.jpeg"
    }
  ],
  "materials": [
    {
      "alphaMode": "BLEND",
      "doubleSided": true,
      "emissiveFactor": [
        1,
        1,
        1
      ],
      "emissiveTexture": {
        "index": 3,
        "texCoord": 0
      },
      "name": "Hologram-object",
      "pbrMetallicRoughness": {
        "baseColorFactor": [
          1,
          1,
          1,
          0.10000000000000001
        ],
        "baseColorTexture": {
          "index": 2,
          "texCoord": 0
        },
        "metallicFactor": 0,
        "roughnessFactor": 1
      }
    },
    {
      "alphaMode": "BLEND",
      "doubleSided": true,
      "emissiveFactor": [
        1,
        1,
        1
      ],
      "emissiveTexture": {
        "index": 1,
        "texCoord": 0
      },
      "name": "Hologram-lights",
      "pbrMetallicRoughness": {
        "baseColorFactor": [
          1,
          1,
          1,
          0.22
        ],
        "baseColorTexture": {
          "index": 0,
          "texCoord": 0
        },
        "metallicFactor": 0,
        "roughnessFactor": 1
      }
    },
    {
      "doubleSided": true,
      "name": "Metal-part",
      "pbrMetallicRoughness": {
        "baseColorFactor": [
          1,
          1,
          1,
          1
        ],
        "baseColorTexture": {
          "index": 5,
          "texCoord": 0
        },
        "metallicFactor": 1,
        "metallicRoughnessTexture": {
          "index": 4,
          "texCoord": 0
        },
        "roughnessFactor": 1
      }
    }
  ],
  "meshes": [
    {
      "name": "Suzanne_Hologram-object_0",
      "primitives": [
        {
          "attributes": {
            "NORMAL": 1,
            "POSITION": 0,
            "TANGENT": 2,
            "TEXCOORD_0": 3
          },
          "indices": 4,
          "material": 0,
          "mode": 4
        }
      ]
    },
    {
      "name": "Plane_Hologram-lights_0",
      "primitives": [
        {
          "attributes": {
            "NORMAL": 6,
            "POSITION": 5,
            "TANGENT": 7,
            "TEXCOORD_0": 8
          },
          "indices": 9,
          "material": 1,
          "mode": 4
        }
      ]
    },
    {
      "name": "Circle_Metal-part_0",
      "primitives": [
        {
          "attributes": {
            "NORMAL": 11,
            "POSITION": 10,
            "TANGENT": 12,
            "TEXCOORD_0": 13
          },
          "indices": 14,
          "material": 2,
          "mode": 4
        }
      ]
    }
  ],
  "nodes": [
    {
      "children": [
        1
      ],
      "name": "RootNode (gltf orientation matrix)",
      "rotation": [
        -0.70710678118654746,
        -0,
        -0,
        0.70710678118654757
      ]
    },
    {
      "children": [
        2
      ],
      "name": "RootNode (model correction matrix)"
    },
    {
      "children": [
        3
      ],
      "matrix": [
        1,
        0,
        0,
        0,
        0,
        0,
        1,
        0,
        0,
        -1,
        0,
        0,
        0,
        0,
        0,
        1
      ],
      "name": "c3ca773633b94848aca387339e4af0dc.fbx"
    },
    {
      "children": [
        4
      ],
      "name": ""
    },
    {
      "children": [
        5,
        7,
        9,
        11,
        14
      ],
      "name": "RootNode"
    },
    {
      "children": [
        6
      ],
      "name": "Suzanne",
      "rotation": [
        -0.7071068286895752,
        0,
        0,
        0.70710670948028564
      ],
      "scale": [
        100,
        100,
        100
      ],
      "translation": [
        0,
        344.16201782226562,
        -7.1854100227355957
      ]
    },
    {
      "mesh": 0,
      "name": "Suzanne_Hologram-object_0"
    },
    {
      "children": [
        8
      ],
      "name": "Plane",
      "rotation": [
        -0.7071068286895752,
        0,
        0,
        0.70710670948028564
      ],
      "scale": [
        100,
        100,
        100
      ]
    },
    {
      "mesh": 1,
      "name": "Plane_Hologram-lights_0"
    },
    {
      "children": [
        10
      ],
      "name": "Circle",
      "rotation": [
        -0.7071068286895752,
        0,
        0,
        0.70710670948028564
      ],
      "scale": [
        100,
        100,
        100
      ]
    },
    {
      "mesh": 2,
      "name": "Circle_Metal-part_0"
    },
    {
      "children": [
        12
      ],
      "name": "Lamp",
      "rotation": [
        0.16907571256160736,
        0.75588035583496094,
        -0.27217131853103638,
        0.57094746828079224
      ],
      "scale": [
        100.00000762939453,
        100,
        100
      ],
      "translation": [
        407.62454223632812,
        590.38623046875,
        -100.54539489746094
      ]
    },
    {
      "children": [
        13
      ],
      "matrix": [
        1,
        0,
        0,
        0,
        0,
        2.2204460492503131e-16,
        1,
        0,
        0,
        -1,
        2.2204460492503131e-16,
        0,
        0,
        0,
        0,
        1
      ],
      "name": ""
    },
    {
      "name": ""
    },
    {
      "children": [
        15
      ],
      "name": "Camera",
      "rotation": [
        -0.21061135828495026,
        0.90524005889892578,
        -0.089281640946865082,
        0.35806712508201599
      ],
      "scale": [
        100,
        100,
        100
      ],
      "translation": [
        748.1131591796875,
        534.36651611328125,
        650.76397705078125
      ]
    },
    {
      "name": ""
    }
  ],
  "samplers": [
    {
      "magFilter": 9729,
      "minFilter": 9987,
      "wrapS": 10497,
      "wrapT": 10497
    }
  ],
  "scene": 0,
  "scenes": [
    {
      "name": "OSG_Scene",
      "nodes": [
        0
      ]
    }
  ],
  "textures": [
    {
      "sampler": 0,
      "source": 0
    },
    {
      "sampler": 0,
      "source": 1
    },
    {
      "sampler": 0,
      "source": 2
    },
    {
      "sampler": 0,
      "source": 3
    },
    {
      "sampler": 0,
      "source": 4
    },
    {
      "sampler": 0,
      "source": 5
    }
  ]
}

